<svg width="146" height="128" viewBox="0 0 146 128" fill="none" xmlns="http://www.w3.org/2000/svg">
<path d="M124.021 71.6027C124.021 75.5303 120.848 78.7025 116.921 78.7025H30.7408C26.8133 78.7025 23.641 75.5303 23.641 71.6027V44.7139H47.7351L48.1128 47.7351C48.6415 51.9648 50.0766 56.0435 52.4936 59.4423C57.252 66.089 65.0316 70.4698 73.7931 70.4698H123.945V71.6027H124.021Z" fill="#454258"/>
<path d="M116.921 11.6317H94.4884V7.09984C94.4884 3.17227 91.3161 0 87.3885 0H60.1976C56.2701 0 53.0978 3.17227 53.0978 7.09984V11.6317H30.7408C26.8133 11.6317 23.641 14.8039 23.641 18.7315V20.091H73.7931C86.029 20.091 96.3011 28.4749 99.1713 39.88H123.945V18.7315C124.021 14.8039 120.848 11.6317 116.921 11.6317ZM110.501 30.4387C107.631 30.4387 105.214 28.0973 105.214 25.1516C105.214 22.2814 107.555 19.8645 110.501 19.8645C113.446 19.8645 115.788 22.2059 115.788 25.1516C115.712 28.0217 113.371 30.4387 110.501 30.4387Z" fill="url(#paint0_linear)"/>
<path d="M94.4128 44.7139C94.4128 41.4661 93.6575 38.4449 92.3735 35.7258L87.464 44.7139L82.1014 54.0797L92.3735 53.7775C93.6575 51.0584 94.4128 47.9617 94.4128 44.7139Z" fill="#454258"/>
<path d="M79.1557 54.0796L84.5939 44.7139L79.1557 35.3481H68.2793L62.9167 44.7139L68.2793 54.0796H79.1557Z" fill="url(#paint1_linear)"/>
<path d="M55.1371 35.6503C53.7775 38.3694 53.0222 41.4661 53.0222 44.7139C53.0222 47.9617 53.7775 50.9829 55.0615 53.702L59.971 44.7139L65.3337 35.3481L55.1371 35.6503Z" fill="#454258"/>
<path d="M66.8443 32.7801H67.5241H77.5696L72.2825 24.0941C65.7869 24.5473 60.1221 28.0217 56.6477 33.0822L66.8443 32.7801Z" fill="#454258"/>
<path d="M80.5908 32.7801L86.029 42.1459L90.9384 33.1578C87.4641 28.0217 81.7993 24.5473 75.3037 24.0941L80.5908 32.7801Z" fill="#454258"/>
<path d="M80.5907 56.6477H69.7899L75.1526 65.4092C81.6482 64.956 87.3129 61.4816 90.7873 56.4211L80.5907 56.6477Z" fill="#454258"/>
<path d="M66.8443 56.6477L61.4061 47.282L56.4966 56.2701C59.971 61.4061 65.6358 64.8805 72.1314 65.3337L66.8443 56.6477Z" fill="#454258"/>
<path d="M13.3689 104.912C13.3689 105.214 13.1423 105.44 12.8401 105.44H4.53182V112.162H10.8008C11.1029 112.162 11.3295 112.389 11.3295 112.691V116.015C11.3295 116.392 11.1029 116.543 10.8008 116.543H4.53182V127.193C4.53182 127.495 4.30522 127.722 4.0031 127.722H0.528712C0.151061 127.722 0 127.495 0 127.193V101.513C0 101.211 0.151061 100.984 0.528712 100.984H12.8401C13.1423 100.984 13.3689 101.211 13.3689 101.513V104.912Z" fill="#454258"/>
<path d="M17.3719 105.818C17.3719 102.646 19.0336 100.984 22.2059 100.984H25.9824C29.1547 100.984 30.8163 102.646 30.8163 105.818V122.963C30.8163 126.136 29.1547 127.797 25.9824 127.797H22.2059C19.0336 127.797 17.3719 126.136 17.3719 122.963V105.818ZM25.076 123.492C25.9824 123.492 26.4356 123.039 26.4356 122.132V106.724C26.4356 105.818 25.9824 105.365 25.076 105.365H23.1878C22.2814 105.365 21.8282 105.818 21.8282 106.724V122.132C21.8282 123.039 22.2814 123.492 23.1878 123.492H25.076Z" fill="#454258"/>
<path d="M46.9043 101.06C47.2819 101.06 47.433 101.286 47.433 101.588V104.912C47.433 105.214 47.2819 105.44 46.9043 105.44H43.0522V127.269C43.0522 127.646 42.9012 127.797 42.5235 127.797H39.0491C38.747 127.797 38.5204 127.646 38.5204 127.269V105.44H34.6684C34.3662 105.44 34.1396 105.214 34.1396 104.912V101.588C34.1396 101.286 34.3662 101.06 34.6684 101.06H46.9043Z" fill="#454258"/>
<path d="M51.134 105.818C51.134 102.646 52.7956 100.984 55.9679 100.984H59.7444C62.9167 100.984 64.5784 102.646 64.5784 105.818V122.963C64.5784 126.136 62.9167 127.797 59.7444 127.797H55.9679C52.7956 127.797 51.134 126.136 51.134 122.963V105.818ZM58.8381 123.492C59.7444 123.492 60.1976 123.039 60.1976 122.132V106.724C60.1976 105.818 59.7444 105.365 58.8381 105.365H56.8743C55.9679 105.365 55.5147 105.818 55.5147 106.724V122.132C55.5147 123.039 55.9679 123.492 56.8743 123.492H58.8381Z" fill="#454258"/>
<path d="M69.4879 105.818C69.4879 102.646 71.1495 100.984 74.3218 100.984H78.7025C81.7993 100.984 83.5365 102.646 83.5365 105.818V109.292C83.5365 109.594 83.3099 109.821 83.0078 109.821H79.6844C79.3068 109.821 79.1557 109.594 79.1557 109.292V106.724C79.1557 105.818 78.7025 105.365 77.7962 105.365H75.3792C74.4728 105.365 74.0197 105.818 74.0197 106.724V121.981C74.0197 122.888 74.4728 123.341 75.3792 123.341H77.7962C78.7025 123.341 79.1557 122.888 79.1557 121.981V117.525H77.4185C77.0409 117.525 76.8898 117.299 76.8898 116.996V113.673C76.8898 113.295 77.0409 113.144 77.4185 113.144H83.0078C83.3099 113.144 83.5365 113.295 83.5365 113.673V122.963C83.5365 126.136 81.7993 127.797 78.7025 127.797H74.3218C71.1495 127.797 69.4879 126.136 69.4879 122.963V105.818Z" fill="#454258"/>
<path d="M102.344 113.975C102.344 116.241 101.513 117.676 99.9266 118.356L102.268 127.117C102.344 127.495 102.192 127.722 101.815 127.722H98.3405C98.0383 127.722 97.8117 127.571 97.7362 127.269L95.4703 118.809H93.1289V127.269C93.1289 127.571 92.9023 127.797 92.6002 127.797H89.1258C88.8236 127.797 88.597 127.571 88.597 127.269V101.588C88.597 101.286 88.8236 101.06 89.1258 101.06H97.5096C100.682 101.06 102.344 102.721 102.344 105.893V113.975ZM96.4522 114.428C97.3586 114.428 97.8117 113.975 97.8117 113.069V106.8C97.8117 105.893 97.3586 105.44 96.4522 105.44H93.1289V114.428H96.4522Z" fill="#454258"/>
<path d="M118.885 127.797C118.583 127.797 118.431 127.646 118.356 127.344L117.45 122.435H111.483L110.576 127.344C110.501 127.646 110.35 127.797 110.048 127.797H106.498C106.12 127.797 105.969 127.571 106.044 127.193L111.558 101.513C111.634 101.211 111.86 101.06 112.162 101.06H116.845C117.147 101.06 117.374 101.211 117.45 101.513L122.963 127.193C123.039 127.571 122.888 127.797 122.51 127.797H118.885ZM114.428 106.875L112.314 118.507H116.619L114.428 106.875Z" fill="#454258"/>
<path d="M145.32 101.06C145.773 101.06 146 101.286 146 101.739V127.117C146 127.571 145.773 127.797 145.32 127.797H142.224C141.77 127.797 141.544 127.571 141.544 127.117V112.087H141.317L137.994 127.193C137.918 127.571 137.692 127.797 137.239 127.797H135.577C135.199 127.797 134.973 127.571 134.822 127.193L131.498 112.087H131.272V127.117C131.272 127.571 131.045 127.797 130.592 127.797H127.495C127.042 127.797 126.815 127.571 126.815 127.117V101.739C126.815 101.286 127.042 101.06 127.495 101.06H131.876C132.254 101.06 132.48 101.286 132.631 101.664L136.332 118.28L140.033 101.664C140.109 101.286 140.335 101.06 140.788 101.06H145.32Z" fill="#454258"/>
<defs>
<linearGradient id="paint0_linear" x1="47.646" y1="-8.27562" x2="109.858" y2="53.9364" gradientUnits="userSpaceOnUse">
<stop stop-color="#C50058"/>
<stop offset="1" stop-color="#B721FF"/>
</linearGradient>
<linearGradient id="paint1_linear" x1="66.3192" y1="37.3122" x2="81.1348" y2="52.1278" gradientUnits="userSpaceOnUse">
<stop stop-color="#C50058"/>
<stop offset="1" stop-color="#B721FF"/>
</linearGradient>
</defs>
</svg>
