<svg width="36" height="36" viewBox="0 0 36 36" fill="none" xmlns="http://www.w3.org/2000/svg">
<path d="M18 12.3C14.0298 12.3 10.8 15.5298 10.8 19.5C10.8 23.4702 14.0298 26.7 18 26.7C21.9702 26.7 25.2 23.4702 25.2 19.5C25.2 15.5298 21.9702 12.3 18 12.3Z" fill="white"/>
<path d="M33.1206 9.3H28.0062L25.6062 3.3H10.3938L7.9938 9.3H7.2V6.3H3.6V9.3H2.8794C1.2912 9.3 0 10.5912 0 12.1794V29.8002C0 31.3992 1.3008 32.7 2.8998 32.7H33.1002C34.6992 32.7 36 31.3992 36 29.8002V12.1794C36 10.5912 34.7088 9.3 33.1206 9.3ZM6 9.3H4.8V7.5H6V9.3ZM18 30.3C12.045 30.3 7.2 25.455 7.2 19.5C7.2 13.545 12.045 8.7 18 8.7C23.955 8.7 28.8 13.545 28.8 19.5C28.8 25.455 23.955 30.3 18 30.3ZM31.2 16.5C29.8764 16.5 28.8 15.4236 28.8 14.1C28.8 12.7764 29.8764 11.7 31.2 11.7C32.5236 11.7 33.6 12.7764 33.6 14.1C33.6 15.4236 32.5236 16.5 31.2 16.5Z" fill="white"/>
</svg>
